Coordinates
version=1
nRows=14
nColumns=40
inDegrees=yes

Units are S.I. units (second, meters, Newtons, ...)
Angles are in degrees.

endheader
time	pelvis_tilt	pelvis_list	pelvis_rotation	pelvis_tx	pelvis_ty	pelvis_tz	hip_flexion_r	hip_adduction_r	hip_rotation_r	knee_angle_r	knee_angle_r_beta	ankle_angle_r	subtalar_angle_r	mtp_angle_r	hip_flexion_l	hip_adduction_l	hip_rotation_l	knee_angle_l	knee_angle_l_beta	ankle_angle_l	subtalar_angle_l	mtp_angle_l	lumbar_extension	lumbar_bending	lumbar_rotation	arm_flex_r	arm_add_r	arm_rot_r	elbow_flex_r	pro_sup_r	wrist_flex_r	wrist_dev_r	arm_flex_l	arm_add_l	arm_rot_l	elbow_flex_l	pro_sup_l	wrist_flex_l	wrist_dev_l
     31.66500000	    -11.31379311	    -25.20235343	     11.84859074	      1.07427023	      0.86262398	      0.50536829	     42.29784289	     10.73715662	    -32.70465000	     30.96464619	     30.96464619	      7.64664101	    -12.17665656	      7.76745915	     42.54055955	    -26.72475992	     24.87768732	     68.82222144	     68.82222144	     18.03709623	    -13.84252830	      3.54099307	      2.77068453	     29.53976725	    -11.04634909	    -13.61664113	    -17.59639912	     -3.55086402	     33.06141442	     46.04119160	      0.00000000	      0.00000000	     21.18665826	     -9.46889207	     -2.97795976	    101.36587827	     48.28614560	      0.00000000	      0.00000000
     31.67628571	    -14.46937987	    -32.67177073	     16.82155509	      1.05281816	      0.84439847	      0.50177863	     49.54229027	     11.39503747	    -39.45283625	     31.17570136	     31.17570136	      7.46758014	    -16.15844174	     10.79989301	     58.22954070	    -24.07614817	     37.88731957	     75.14429639	     75.14429639	     16.80891665	    -13.14612026	      6.57968014	     11.11189808	     36.13377841	    -17.68034582	    -15.59782345	    -21.10146375	      0.94883642	     42.15625880	     45.41306443	      0.00000000	      0.00000000	     23.07195460	     -7.89286818	     -1.75151425	    100.14345617	     48.28029064	      0.00000000	      0.00000000
     31.68757143	    -18.43339778	    -34.97466236	     18.06654962	      1.03294537	      0.82955174	      0.49845981	     56.03347067	      8.57228998	    -39.80756821	     34.04482152	     34.04482152	      9.22847765	    -18.95056891	     16.59473459	     68.64028697	    -20.00454276	     39.88360987	     79.50803126	     79.50803126	     14.19505726	    -12.39405287	      3.99382617	     17.01838921	     37.25545254	    -20.53853796	    -16.88150108	    -24.53044242	      3.72355896	     50.11258252	     45.03623730	      0.00000000	      0.00000000	     24.45015742	     -6.51405242	     -0.61561884	     98.58643631	     48.25272600	      0.00000000	      0.00000000
     31.69885714	    -22.15689186	    -36.31026843	     18.66023343	      1.01606246	      0.81786450	      0.49584475	     61.14789683	      5.40711947	    -39.87881418	     36.69969139	     36.69969139	     11.39936806	    -19.46449000	     21.68320434	     76.52945828	    -15.72292986	     39.93547564	     82.61100106	     82.61100106	     11.85338997	    -12.98758733	      3.10049086	     22.02298603	     37.24870238	    -22.63176549	    -17.50804979	    -27.55536009	      5.27803988	     56.39971163	     44.79170021	      0.00000000	      0.00000000	     25.12605758	     -5.12168614	     -0.05751992	     96.76932305	     48.22957898	      0.00000000	      0.00000000
     31.71014286	    -24.14437113	    -37.17339355	     19.07715226	      1.00612358	      0.81254547	      0.49525496	     63.51390280	      3.99202336	    -39.90281920	     37.67305265	     37.67305265	     12.12296933	    -19.60630427	     22.35063623	     81.05808631	    -12.67641136	     39.94551576	     84.24031271	     84.24031271	     10.12407240	    -14.42644473	      3.58154684	     24.82929907	     37.20706114	    -23.95800007	    -16.23108849	    -28.92354820	      5.23195753	     58.22482532	     44.75078338	      0.00000000	      0.00000000	     24.72412675	     -4.63328967	      0.65081396	     95.13488775	     48.16319954	      0.00000000	      0.00000000
     31.72142857	    -23.57616465	    -37.09766789	     19.50544191	      1.00554529	      0.81533611	      0.49670512	     62.53771040	      4.62514678	    -39.90266529	     37.40988438	     37.40988438	     12.94504819	    -19.59634153	     23.17210971	     81.60277986	    -11.71488556	     39.94391428	     84.51334123	     84.51334123	      9.47339641	    -15.67748155	      4.53379874	     24.35977630	     37.25366932	    -23.50239014	    -14.88318084	    -30.04661501	      7.17499263	     60.33037366	     44.66572099	      0.00000000	      0.00000000	     23.85063596	     -4.16193041	      0.93899111	     92.17817044	     48.13296905	      0.00000000	      0.00000000
     31.73271429	    -20.77820757	    -36.02682876	     19.78102377	      1.01410715	      0.82613795	      0.50038122	     58.13275297	      7.31609804	    -39.87911604	     35.25080470	     35.25080470	     12.24465779	    -19.42465970	     19.67337897	     78.47326818	    -12.79318004	     39.92970389	     83.49916103	     83.49916103	      9.82688347	    -16.73496465	      6.17800340	     20.79984782	     37.17067157	    -22.05764447	    -11.17508416	    -28.79964106	      7.99924582	     57.03197298	     44.82655017	      0.00000000	      0.00000000	     21.67952530	     -4.64681995	      0.74474994	     89.37538417	     48.13222683	      0.00000000	      0.00000000
     31.74400000	    -16.51489084	    -34.25280942	     19.72600644	      1.02922304	      0.84272464	      0.50591396	     50.93212088	     11.35134116	    -39.79490036	     31.37645305	     31.37645305	     10.22050149	    -18.45455985	     12.44858874	     72.49663992	    -15.16813268	     39.86964087	     81.48161074	     81.48161074	     11.27088244	    -17.66370203	      9.64894338	     15.12703948	     36.78203868	    -19.56798436	     -6.53189438	    -26.14470873	      8.33607309	     50.54207848	     45.11980097	      0.00000000	      0.00000000	     18.95866325	     -5.29812445	     -0.13307714	     86.00136987	     48.16080911	      0.00000000	      0.00000000
     31.75528571	    -12.30075665	    -31.17625778	     18.59506664	      1.04718080	      0.86201684	      0.51226096	     42.19248550	     14.41367753	    -39.37366858	     27.60318270	     27.60318270	     10.12446449	    -13.02560079	      7.96317144	     64.67006912	    -17.78646205	     37.84979410	     78.79493103	     78.79493103	     13.65706479	    -18.53944687	     15.32547031	      8.46740965	     34.93790346	    -15.99254220	     -2.35072186	    -23.10658838	      7.94001668	     44.23519600	     45.42559089	      0.00000000	      0.00000000	     15.83722120	     -6.14181133	     -1.19816587	     82.39458638	     48.18270807	      0.00000000	      0.00000000
     31.76657143	     -9.50764156	    -23.65807436	     13.98357311	      1.06561415	      0.88327482	      0.51932559	     33.12643879	     13.17513261	    -33.42090923	     26.18108198	     26.18108198	     10.96419803	     -7.35030990	      4.73743197	     54.12143256	    -20.27934072	     26.89958905	     74.98147638	     74.98147638	     15.46433505	    -18.88219319	     17.31413390	      0.55993658	     27.98946882	     -9.65507030	      1.53566275	    -19.37467526	      4.85068289	     37.72437765	     45.86349888	      0.00000000	      0.00000000	     12.56524652	     -7.16087656	     -2.34509329	     78.66076943	     48.21030221	      0.00000000	      0.00000000
     31.77785714	     -6.65691168	    -15.57240346	      8.45678316	      1.08180018	      0.90342143	      0.52751645	     25.06060876	      9.92471814	    -25.03299903	     25.18671303	     25.18671303	     11.65961877	     -4.49007999	      2.85632259	     42.51186929	    -20.43348071	     14.18470617	     69.95843968	     69.95843968	     16.65480304	    -19.15269606	     18.49076995	     -5.78865199	     19.50235148	     -2.92860036	      3.59933453	    -17.01822301	      2.91684818	     34.45434955	     46.10904774	      0.00000000	      0.00000000	     10.91429724	     -7.52316440	     -2.52297318	     72.77986877	     48.09997401	      0.00000000	      0.00000000
     31.78914286	     -3.96700685	     -8.69400935	      3.60327134	      1.09400876	      0.91949600	      0.53485760	     18.84213330	      5.41094372	    -19.05646509	     24.31178917	     24.31178917	     12.47299941	     -0.85332706	      1.24465057	     32.79708073	    -18.24021828	      3.43104566	     64.31016510	     64.31016510	     17.06245736	    -19.28309089	     19.09526524	     -9.85045030	     11.67500830	      1.89342127	      5.20454111	    -15.48210132	      1.18149198	     32.95219895	     46.27694235	      0.00000000	      0.00000000	      9.49071942	     -7.69405150	     -2.70791155	     67.71679491	     47.99705958	      0.00000000	      0.00000000
     31.80042857	     -1.96076636	     -3.78385874	      0.06758061	      1.10147507	      0.93056158	      0.54053215	     14.77759910	      1.35004479	    -15.52740881	     23.37797311	     23.37797311	     12.80599766	      2.08425104	     -0.16311299	     26.54606746	    -15.35170943	     -3.84491833	     58.93144674	     58.93144674	     16.52529295	    -19.32954593	     19.09447439	    -12.07276935	      5.79541068	      5.22055585	      6.74130343	    -14.32489995	     -1.55344412	     32.35385222	     46.46393306	      0.00000000	      0.00000000	      8.68340139	     -7.78937137	     -2.42092594	     62.35089138	     47.83616427	      0.00000000	      0.00000000
     31.81171429	     -0.75567934	     -1.00420842	     -1.95023193	      1.10486439	      0.93697099	      0.54437324	     12.29924125	     -1.10145172	    -13.52134850	     22.50938257	     22.50938257	     13.20985591	      3.53183424	     -0.28408853	     23.49996997	    -13.27558567	     -7.78655814	     54.57144823	     54.57144823	     16.14721064	    -19.31460760	     19.73200254	    -13.21077582	      2.30815922	      6.62967990	      8.51388278	    -13.74232839	     -1.86885146	     33.13459614	     46.46053093	      0.00000000	      0.00000000	      6.94552333	     -8.21907084	     -2.38313668	     60.20828522	     47.77473065	      0.00000000	      0.00000000
